HIERARCHY
ROOT mixamorig:Hips
{
	OFFSET 0.000000 201.639420 0.000000
	CHANNELS 6 Xposition Yposition Zposition Xrotation Yrotation Zrotation
	JOINT mixamorig:Spine
	{
		OFFSET 0.006200 19.524994 -2.481800
		CHANNELS 3 Xrotation Yrotation Zrotation
		JOINT mixamorig:Spine1
		{
			OFFSET -0.000900 22.835007 -2.825400
			CHANNELS 3 Xrotation Yrotation Zrotation
			JOINT mixamorig:Spine2
			{
				OFFSET -0.020600 26.552490 -3.193300
				CHANNELS 3 Xrotation Yrotation Zrotation
				JOINT mixamorig:Neck
				{
					OFFSET -0.060000 30.701813 1.352200
					CHANNELS 3 Xrotation Yrotation Zrotation
					JOINT mixamorig:Head
					{
						OFFSET -0.087200 22.547607 3.670900
						CHANNELS 3 Xrotation Yrotation Zrotation
						JOINT mixamorig:HeadTop_End
						{
							OFFSET -0.830600 40.355194 7.893500
							CHANNELS 3 Xrotation Yrotation Zrotation
							End Site
							{
								OFFSET 0.000000 30.592346 0.000000
							}
						}
						JOINT mixamorig:RightEye
						{
							OFFSET -6.302100 18.118591 16.197100
							CHANNELS 3 Xrotation Yrotation Zrotation
							End Site
							{
								OFFSET 0.000000 30.592346 0.000000
							}
						}
						JOINT mixamorig:LeftEye
						{
							OFFSET 6.741500 18.382690 16.401899
							CHANNELS 3 Xrotation Yrotation Zrotation
							End Site
							{
								OFFSET 0.000000 30.592346 0.000000
							}
						}
					}
				}
				JOINT mixamorig:LeftShoulder
				{
					OFFSET 11.924900 18.230499 1.425400
					CHANNELS 3 Xrotation Yrotation Zrotation
					JOINT mixamorig:LeftArm
					{
						OFFSET 25.435989 -0.697632 -5.229300
						CHANNELS 3 Xrotation Yrotation Zrotation
						JOINT mixamorig:LeftForeArm
						{
							OFFSET 54.684776 0.000000 0.000000
							CHANNELS 3 Xrotation Yrotation Zrotation
							JOINT mixamorig:LeftHand
							{
								OFFSET 55.098175 0.000000 0.000000
								CHANNELS 3 Xrotation Yrotation Zrotation
								JOINT mixamorig:LeftHandMiddle1
								{
									OFFSET 23.369751 0.000000 0.000000
									CHANNELS 3 Xrotation Yrotation Zrotation
									JOINT mixamorig:LeftHandMiddle2
									{
										OFFSET 6.378677 0.000000 0.000000
										CHANNELS 3 Xrotation Yrotation Zrotation
										JOINT mixamorig:LeftHandMiddle3
										{
											OFFSET 6.148331 0.000000 0.000000
											CHANNELS 3 Xrotation Yrotation Zrotation
											JOINT mixamorig:LeftHandMiddle4
											{
												OFFSET 6.582504 0.000000 0.000000
												CHANNELS 3 Xrotation Yrotation Zrotation
												End Site
												{
													OFFSET -1.168900 6.395691 1.028606
												}
											}
										}
									}
								}
								JOINT mixamorig:LeftHandThumb1
								{
									OFFSET 7.235672 -3.848206 5.434273
									CHANNELS 3 Xrotation Yrotation Zrotation
									JOINT mixamorig:LeftHandThumb2
									{
										OFFSET 6.568451 -3.792297 3.792300
										CHANNELS 3 Xrotation Yrotation Zrotation
										JOINT mixamorig:LeftHandThumb3
										{
											OFFSET 6.063080 -3.500519 3.500518
											CHANNELS 3 Xrotation Yrotation Zrotation
											JOINT mixamorig:LeftHandThumb4
											{
												OFFSET 4.793182 -2.767334 2.767349
												CHANNELS 3 Xrotation Yrotation Zrotation
												End Site
												{
													OFFSET 0.101639 6.054260 1.275483
												}
											}
										}
									}
								}
								JOINT mixamorig:LeftHandIndex1
								{
									OFFSET 23.101074 -0.309540 4.992809
									CHANNELS 3 Xrotation Yrotation Zrotation
									JOINT mixamorig:LeftHandIndex2
									{
										OFFSET 6.226883 0.000000 0.000000
										CHANNELS 3 Xrotation Yrotation Zrotation
										JOINT mixamorig:LeftHandIndex3
										{
											OFFSET 6.094330 0.000000 0.000000
											CHANNELS 3 Xrotation Yrotation Zrotation
											JOINT mixamorig:LeftHandIndex4
											{
												OFFSET 5.482605 0.000000 0.000000
												CHANNELS 3 Xrotation Yrotation Zrotation
												End Site
												{
													OFFSET -1.427902 5.233032 0.797164
												}
											}
										}
									}
								}
								JOINT mixamorig:LeftHandRing1
								{
									OFFSET 22.299240 0.021149 -3.964172
									CHANNELS 3 Xrotation Yrotation Zrotation
									JOINT mixamorig:LeftHandRing2
									{
										OFFSET 6.321869 0.000000 0.000000
										CHANNELS 3 Xrotation Yrotation Zrotation
										JOINT mixamorig:LeftHandRing3
										{
											OFFSET 5.899796 0.000000 0.000000
											CHANNELS 3 Xrotation Yrotation Zrotation
											JOINT mixamorig:LeftHandRing4
											{
												OFFSET 6.517899 0.000000 0.000000
												CHANNELS 3 Xrotation Yrotation Zrotation
												End Site
												{
													OFFSET -1.637299 6.232208 0.980890
												}
											}
										}
									}
								}
								JOINT mixamorig:LeftHandPinky1
								{
									OFFSET 20.463791 -0.302338 -8.562233
									CHANNELS 3 Xrotation Yrotation Zrotation
									JOINT mixamorig:LeftHandPinky2
									{
										OFFSET 6.908646 0.000000 0.000000
										CHANNELS 3 Xrotation Yrotation Zrotation
										JOINT mixamorig:LeftHandPinky3
										{
											OFFSET 4.622849 0.000000 0.000000
											CHANNELS 3 Xrotation Yrotation Zrotation
											JOINT mixamorig:LeftHandPinky4
											{
												OFFSET 5.216080 0.000000 0.000000
												CHANNELS 3 Xrotation Yrotation Zrotation
												End Site
												{
													OFFSET -0.606308 5.116241 0.814926
												}
											}
										}
									}
								}
							}
						}
					}
				}
				JOINT mixamorig:RightShoulder
				{
					OFFSET -12.001300 18.284088 1.348900
					CHANNELS 3 Xrotation Yrotation Zrotation
					JOINT mixamorig:RightArm
					{
						OFFSET -25.308500 -0.751312 -5.164599
						CHANNELS 3 Xrotation Yrotation Zrotation
						JOINT mixamorig:RightForeArm
						{
							OFFSET -54.684429 0.000000 0.000000
							CHANNELS 3 Xrotation Yrotation Zrotation
							JOINT mixamorig:RightHand
							{
								OFFSET -55.150291 0.000000 0.000000
								CHANNELS 3 Xrotation Yrotation Zrotation
								JOINT mixamorig:RightHandMiddle1
								{
									OFFSET -23.317566 0.000000 0.000000
									CHANNELS 3 Xrotation Yrotation Zrotation
									JOINT mixamorig:RightHandMiddle2
									{
										OFFSET -6.378403 0.000000 0.000000
										CHANNELS 3 Xrotation Yrotation Zrotation
										JOINT mixamorig:RightHandMiddle3
										{
											OFFSET -6.148193 0.000000 0.000000
											CHANNELS 3 Xrotation Yrotation Zrotation
											JOINT mixamorig:RightHandMiddle4
											{
												OFFSET -6.583389 0.000000 0.000000
												CHANNELS 3 Xrotation Yrotation Zrotation
												End Site
												{
													OFFSET 1.171692 6.395905 1.029786
												}
											}
										}
									}
								}
								JOINT mixamorig:RightHandThumb1
								{
									OFFSET -7.190521 -3.860474 5.435846
									CHANNELS 3 Xrotation Yrotation Zrotation
									JOINT mixamorig:RightHandThumb2
									{
										OFFSET -6.567429 -3.791718 3.791708
										CHANNELS 3 Xrotation Yrotation Zrotation
										JOINT mixamorig:RightHandThumb3
										{
											OFFSET -6.062469 -3.500153 3.500166
											CHANNELS 3 Xrotation Yrotation Zrotation
											JOINT mixamorig:RightHandThumb4
											{
												OFFSET -4.792618 -2.767029 2.767022
												CHANNELS 3 Xrotation Yrotation Zrotation
												End Site
												{
													OFFSET -0.100327 6.053253 1.276754
												}
											}
										}
									}
								}
								JOINT mixamorig:RightHandIndex1
								{
									OFFSET -23.048981 -0.310791 4.992554
									CHANNELS 3 Xrotation Yrotation Zrotation
									JOINT mixamorig:RightHandIndex2
									{
										OFFSET -6.227539 0.000000 0.000000
										CHANNELS 3 Xrotation Yrotation Zrotation
										JOINT mixamorig:RightHandIndex3
										{
											OFFSET -6.095047 0.000000 0.000000
											CHANNELS 3 Xrotation Yrotation Zrotation
											JOINT mixamorig:RightHandIndex4
											{
												OFFSET -5.484772 0.000000 0.000000
												CHANNELS 3 Xrotation Yrotation Zrotation
												End Site
												{
													OFFSET 1.420593 5.237305 0.797056
												}
											}
										}
									}
								}
								JOINT mixamorig:RightHandRing1
								{
									OFFSET -22.246323 0.020569 -3.963762
									CHANNELS 3 Xrotation Yrotation Zrotation
									JOINT mixamorig:RightHandRing2
									{
										OFFSET -6.322128 0.000000 0.000000
										CHANNELS 3 Xrotation Yrotation Zrotation
										JOINT mixamorig:RightHandRing3
										{
											OFFSET -5.900024 0.000000 0.000000
											CHANNELS 3 Xrotation Yrotation Zrotation
											JOINT mixamorig:RightHandRing4
											{
												OFFSET -6.518356 0.000000 0.000000
												CHANNELS 3 Xrotation Yrotation Zrotation
												End Site
												{
													OFFSET 1.636398 6.232697 0.982186
												}
											}
										}
									}
								}
								JOINT mixamorig:RightHandPinky1
								{
									OFFSET -20.411011 -0.303314 -8.561701
									CHANNELS 3 Xrotation Yrotation Zrotation
									JOINT mixamorig:RightHandPinky2
									{
										OFFSET -6.907349 0.000000 0.000000
										CHANNELS 3 Xrotation Yrotation Zrotation
										JOINT mixamorig:RightHandPinky3
										{
											OFFSET -4.623840 0.000000 0.000000
											CHANNELS 3 Xrotation Yrotation Zrotation
											JOINT mixamorig:RightHandPinky4
											{
												OFFSET -5.218353 0.000000 0.000000
												CHANNELS 3 Xrotation Yrotation Zrotation
												End Site
												{
													OFFSET 0.602097 5.118835 0.816273
												}
											}
										}
									}
								}
							}
						}
					}
				}
			}
		}
	}
	JOINT mixamorig:LeftUpLeg
	{
		OFFSET 18.168400 -13.561905 -0.039000
		CHANNELS 3 Xrotation Yrotation Zrotation
		JOINT mixamorig:LeftLeg
		{
			OFFSET 0.577358 -80.825211 -3.695000
			CHANNELS 3 Xrotation Yrotation Zrotation
			JOINT mixamorig:LeftFoot
			{
				OFFSET -0.577356 -83.370262 -6.520700
				CHANNELS 3 Xrotation Yrotation Zrotation
				JOINT mixamorig:LeftToeBase
				{
					OFFSET 0.750401 -20.798306 25.135401
					CHANNELS 3 Xrotation Yrotation Zrotation
					JOINT mixamorig:LeftToe_End
					{
						OFFSET -0.000500 0.001200 19.917799
						CHANNELS 3 Xrotation Yrotation Zrotation
						End Site
						{
							OFFSET 0.000000 19.917805 0.000000
						}
					}
				}
			}
		}
	}
	JOINT mixamorig:RightUpLeg
	{
		OFFSET -18.162500 -13.585098 -0.041000
		CHANNELS 3 Xrotation Yrotation Zrotation
		JOINT mixamorig:RightLeg
		{
			OFFSET -0.595024 -80.945297 -3.631900
			CHANNELS 3 Xrotation Yrotation Zrotation
			JOINT mixamorig:RightFoot
			{
				OFFSET 0.595024 -83.218193 -6.561200
				CHANNELS 3 Xrotation Yrotation Zrotation
				JOINT mixamorig:RightToeBase
				{
					OFFSET -0.753601 -20.807106 25.115000
					CHANNELS 3 Xrotation Yrotation Zrotation
					JOINT mixamorig:RightToe_End
					{
						OFFSET 0.000299 0.001700 19.918200
						CHANNELS 3 Xrotation Yrotation Zrotation
						End Site
						{
							OFFSET 0.000000 19.918203 0.000000
						}
					}
				}
			}
		}
	}
}
MOTION
Frames: 4
Frame Time: 0.033333
31.971315 175.029816 47.806129 -29.200100 -63.314426 -36.007480 21.909512 16.581112 13.342281 -2.273554 1.618555 1.838219 -2.254403 1.763930 1.713126 -6.460830 -11.596279 -9.028654 -17.370749 -69.348584 -0.174964 0.000000 0.000001 -0.000001 0.000000 0.000001 -0.000001 0.000000 0.000001 -0.000001 -0.525368 4.131495 6.928582 36.783072 -39.522186 -64.140483 0.000002 -27.901982 0.000009 10.380356 9.717215 -8.292710 -0.586509 -2.532535 -10.712058 0.129681 1.332627 -11.114193 0.129299 1.330738 -11.098191 -0.000003 0.000002 -0.000004 -6.840249 6.837076 3.462579 3.246847 3.314378 -0.611825 -1.754131 -9.159481 3.287699 0.000000 0.000001 -0.000001 -4.646159 -10.975415 -21.842557 0.070564 0.985239 -8.192727 0.005353 -0.271828 2.253081 -0.000000 0.000002 -0.000003 0.462963 2.853176 -12.343928 0.129287 1.330742 -11.098189 0.098359 1.161987 -9.675885 0.000000 0.000000 -0.000000 1.180041 9.032033 -7.369176 0.097641 -2.855454 -10.496765 0.168416 1.516538 -12.672622 -0.000002 0.000001 0.000003 0.673832 0.662600 23.829142 -66.415414 21.199181 41.725445 -0.000007 29.968353 -0.000002 -8.310707 15.517491 -13.795535 0.198475 2.641775 -4.709299 0.068940 -0.978862 8.059476 0.002387 -0.181548 1.489912 0.000000 0.000001 -0.000002 -8.684446 -18.718618 -33.578402 4.662178 -5.217340 1.084944 -3.072682 0.750411 -2.823526 -0.000002 0.000000 0.000001 2.255597 12.006451 -10.676040 0.000005 -0.000004 0.000003 0.031666 -0.664318 5.459659 0.000002 0.000001 -0.000003 -0.015182 0.096939 -4.678567 0.020011 -0.528169 4.338240 0.002369 -0.181555 1.489905 -0.000001 0.000001 0.000000 -0.040916 0.461747 -11.052203 -0.000006 -0.000002 -0.000004 0.004370 -0.246462 2.022854 0.000000 -0.000001 -0.000001 -11.343653 3.409613 11.803830 67.766309 -8.943182 0.183928 -32.400222 -1.291316 6.242213 -11.772624 -0.002654 0.065648 -0.000000 0.000002 0.000000 -29.167794 -18.868015 9.413466 52.112629 -9.605024 10.128652 -8.208152 -21.070172 -21.826766 -12.697394 0.000014 0.000005 -0.000000 -0.000002 -0.000000 
33.120266 174.698868 49.244606 -44.695044 -67.771364 -49.198430 27.171807 18.075648 10.988883 -1.806007 1.857203 1.425698 -1.775319 1.976699 1.279322 -6.793815 -11.095320 -9.517710 -16.940942 -67.728812 1.396305 0.000000 0.000000 -0.000000 0.000000 0.000000 -0.000000 0.000000 0.000000 -0.000000 -0.472975 4.243654 5.928363 34.616563 -40.899081 -63.993962 0.000032 -26.165760 0.000009 9.993502 6.549680 -4.665129 -0.558852 -2.467688 -10.472417 0.126629 1.317152 -10.983479 0.126281 1.315274 -10.967505 -0.000000 -0.000001 -0.000001 -6.983513 6.809987 3.457005 3.263342 3.352832 -0.449144 -1.959934 -9.341554 3.344527 0.000003 -0.000000 0.000000 -4.359340 -10.795327 -20.970510 0.070541 0.985243 -8.192709 0.004730 -0.255425 2.116975 0.000000 -0.000001 -0.000003 0.380659 2.694459 -10.372143 0.126293 1.315266 -10.967511 0.096298 1.149884 -9.574100 -0.000001 0.000003 -0.000002 0.720115 8.883943 -4.287807 0.145368 -2.620822 -12.478561 0.172259 1.533600 -12.817670 -0.000001 0.000001 0.000001 0.266248 4.415771 20.998419 -65.357766 16.936984 42.600494 -0.000017 29.992395 0.000008 -10.173457 13.779521 -14.923098 0.210203 2.783324 -4.694228 0.068961 -0.978858 8.059479 0.002624 -0.191094 1.568214 0.000001 0.000001 -0.000003 -8.873672 -18.148818 -33.711071 4.662207 -5.217333 1.084930 -3.076537 0.762910 -2.825270 0.000000 0.000001 0.000007 2.317679 12.325207 -10.652862 0.000002 0.000003 -0.000004 0.032287 -0.670663 5.511942 0.000001 -0.000001 -0.000005 -0.015195 0.095389 -4.666072 0.020105 -0.529453 4.348746 0.002601 -0.191085 1.568202 -0.000000 0.000001 0.000000 -0.041219 0.457240 -11.015709 -0.000012 -0.000004 0.000017 0.004410 -0.247786 2.033714 -0.000001 0.000000 0.000001 -6.422711 3.442659 9.045792 63.694806 -6.507116 -4.773258 -35.740123 -2.576782 7.558945 -6.490473 0.000036 0.000005 -0.000000 0.000002 0.000000 -29.745419 -17.163108 8.000490 55.439242 -9.578922 10.033352 2.342028 -17.336941 -15.960704 -18.405879 -0.027132 0.546554 0.000000 -0.000002 -0.000000 
34.543068 174.846176 50.594368 -62.384680 -70.642932 -64.502606 31.283591 18.639327 8.846854 -1.253524 2.060911 0.490800 -1.199154 2.117440 0.333981 -7.160858 -10.734816 -9.837060 -15.750155 -66.635380 3.957233 -0.000001 -0.000001 0.000000 -0.000001 -0.000001 0.000000 -0.000001 -0.000001 0.000000 -0.368880 4.166520 4.618504 33.281121 -41.961438 -62.838253 -0.000008 -24.328152 -0.000018 10.027511 3.800342 -1.583190 -0.531547 -2.446378 -10.111698 0.122030 1.293194 -10.781074 0.121667 1.291285 -10.765078 0.000001 -0.000002 -0.000001 -7.464175 6.282513 3.240950 3.627709 3.867526 -0.165198 -1.765357 -9.130871 3.438189 0.000004 0.000002 0.000003 -4.035110 -10.792525 -19.678309 0.070555 0.985219 -8.192703 0.003479 -0.219266 1.817320 -0.000002 -0.000001 -0.000001 0.227481 2.328814 -6.662171 0.121673 1.291288 -10.765090 0.093173 1.131117 -9.416458 -0.000005 -0.000000 -0.000001 -0.142127 8.384195 1.495975 0.264155 -2.160165 -16.416349 0.180555 1.569544 -13.123525 -0.000002 0.000004 -0.000002 0.186161 7.548889 18.216255 -63.467750 13.504901 43.887958 0.000042 29.940008 -0.000017 -11.672088 12.593998 -15.818766 0.220365 2.907988 -4.678263 0.068964 -0.978855 8.059482 0.003721 -0.227939 1.870722 0.000001 0.000001 -0.000003 -9.149721 -17.305635 -33.869392 4.662198 -5.217346 1.084917 -3.089156 0.803616 -2.827172 0.000001 -0.000001 -0.000002 2.371236 12.606218 -10.627188 0.000003 -0.000002 0.000028 0.034695 -0.695146 5.713904 0.000002 -0.000001 0.000004 -0.015201 0.094879 -4.662089 0.020133 -0.529851 4.352095 0.003719 -0.227938 1.870722 -0.000000 0.000000 0.000001 -0.041322 0.455779 -11.004064 0.000009 -0.000002 0.000007 0.004426 -0.248329 2.038128 -0.000001 -0.000000 0.000001 -2.589897 3.885897 5.453140 59.268570 -3.468137 -8.684568 -37.771452 -3.257955 8.521708 -3.858256 -0.000032 -0.000000 0.000000 0.000001 -0.000000 -30.437474 -15.878790 6.306198 57.414270 -9.392987 9.870329 8.993700 -12.048000 -14.437729 -22.807417 0.203033 -2.664312 0.000000 -0.000000 -0.000000 
36.472328 175.844284 51.786907 -78.303242 -72.951966 -77.487116 33.099329 17.434825 7.281777 -0.543934 2.181652 -1.359504 -0.444647 2.108107 -1.505209 -7.562507 -10.652422 -9.831506 -13.199530 -66.541158 8.247503 -0.000001 0.000000 -0.000001 -0.000001 0.000000 -0.000001 -0.000001 0.000000 -0.000001 -0.195744 3.729318 2.793954 33.859351 -42.321061 -59.520871 0.000005 -22.701254 0.000013 10.272654 2.152612 0.294791 -0.540997 -2.585081 -9.900472 0.119120 1.277810 -10.651424 0.118775 1.275923 -10.635440 -0.000000 -0.000001 -0.000001 -8.106981 5.285211 2.415407 4.382199 4.897523 0.018085 -0.822166 -8.209852 3.507299 0.000007 -0.000001 0.000001 -4.023541 -11.339995 -18.958177 0.070545 0.985236 -8.192718 0.002440 -0.183564 1.521166 -0.000001 -0.000000 0.000001 0.134916 2.035382 -4.261360 0.118760 1.275921 -10.635428 0.091187 1.119112 -9.315491 -0.000004 -0.000001 -0.000002 -0.668467 7.882168 5.223598 0.389430 -1.776819 -19.754217 0.188234 1.602138 -13.401240 0.000000 -0.000001 0.000000 0.289642 9.384554 15.410677 -60.242357 11.534806 45.706414 0.000006 29.873034 -0.000001 -12.063547 12.257993 -15.828388 0.215297 2.849457 -4.677515 0.068939 -0.978857 8.059475 0.005499 -0.276960 2.273237 0.000000 -0.000000 -0.000000 -9.293009 -16.876491 -33.886279 4.662206 -5.217341 1.084933 -3.105879 0.857334 -2.827084 -0.000002 -0.000001 0.000006 2.342946 12.475140 -10.622495 0.000008 -0.000000 0.000012 0.038036 -0.727733 5.982640 0.000002 -0.000001 0.000003 -0.015151 0.098247 -4.689558 0.019944 -0.527046 4.328994 0.005472 -0.276960 2.273237 0.000000 0.000000 -0.000001 -0.040672 0.465635 -11.084349 0.000010 -0.000000 0.000008 0.004359 -0.246465 2.022862 -0.000001 0.000000 0.000000 -1.366692 4.939275 0.528414 55.322746 0.084424 -10.166548 -37.427135 -2.609661 8.768950 -2.897521 0.000020 0.000003 -0.000000 0.000001 0.000000 -33.712776 -14.761410 1.280858 60.728899 -9.069207 9.957416 11.074959 -5.216595 -5.280790 -22.650074 0.567501 -6.453860 0.000000 -0.000002 -0.000001 
